M48
METRIC,LZ,000.000
;FILE_FORMAT=3:3
;TYPE=PLATED
;Layer: PTH_Through
;EasyEDA v6.5.47, 2024-12-05 11:28:38
;e01d2f149ab64b4ea65648a7afd3b608,d06a1f6f384c4cbbbfe4d72778ff38a8,10
;Gerber Generator version 0.2
;Holesize 1 = 0.306 mm
T01C0.306
%
G05
G90
T01
X015905Y-028587
X012929Y-013569
X051994Y-022770
X012798Y-007142
X017988Y-028571
X059975Y-015376
X060986Y-019304
X022488Y-010584
X001072Y-021392
X001072Y-031552
X006152Y-031552
X011232Y-021392
X011232Y-026472
X011232Y-031552
X016312Y-031552
X021392Y-006152
X021392Y-021392
X021392Y-026472
X021392Y-031552
X026472Y-011232
X026472Y-021392
X026472Y-026472
X026472Y-031552
X031552Y-006152
X031552Y-011232
X031552Y-021392
X031552Y-026472
X031552Y-031552
X036632Y-001072
X036632Y-011232
X036632Y-021392
X036632Y-026472
X036632Y-031552
X041712Y-001072
X041712Y-006152
X041712Y-021392
X041712Y-026472
X041712Y-031552
X046792Y-001072
X046792Y-006152
X046792Y-011232
X046792Y-021392
X046792Y-026472
X046792Y-031552
X051872Y-001072
X051872Y-006152
X051872Y-011232
X051872Y-026472
X051872Y-031552
X056952Y-001072
X056952Y-006152
X056952Y-011232
X056952Y-021392
X056952Y-026472
X056952Y-031552
X062032Y-001072
X062032Y-031552
X067112Y-006152
X001072Y-021392
X001072Y-031552
X006152Y-031552
X011232Y-021392
X011232Y-026472
X011232Y-031552
X016312Y-031552
X021392Y-006152
X021392Y-021392
X021392Y-026472
X021392Y-031552
X026472Y-011232
X026472Y-021392
X026472Y-026472
X026472Y-031552
X031552Y-006152
X031552Y-011232
X031552Y-021392
X031552Y-026472
X031552Y-031552
X036632Y-001072
X036632Y-011232
X036632Y-021392
X036632Y-026472
X036632Y-031552
X041712Y-001072
X041712Y-006152
X041712Y-021392
X041712Y-026472
X041712Y-031552
X046792Y-001072
X046792Y-006152
X046792Y-011232
X046792Y-021392
X046792Y-026472
X046792Y-031552
X051872Y-001072
X051872Y-006152
X051872Y-011232
X051872Y-026472
X051872Y-031552
X056952Y-001072
X056952Y-006152
X056952Y-011232
X056952Y-021392
X056952Y-026472
X056952Y-031552
X062032Y-001072
X062032Y-031552
X067112Y-006152
X001072Y-018852
X001072Y-021392
X001072Y-031552
X001072Y-034092
X003612Y-018852
X003612Y-021392
X006152Y-018852
X006152Y-031552
X006152Y-034092
X008692Y-013772
X008692Y-016312
X008692Y-021392
X008692Y-023932
X008692Y-026472
X008692Y-029012
X008692Y-031552
X008692Y-034092
X011232Y-018852
X011232Y-021392
X011232Y-023932
X011232Y-026472
X011232Y-031552
X011232Y-034092
X013772Y-013772
X013772Y-018852
X013772Y-021392
X013772Y-023932
X013772Y-026472
X013772Y-031552
X013772Y-034092
X016312Y-031552
X016312Y-034092
X018852Y-031552
X018852Y-034092
X021392Y-006152
X021392Y-013772
X021392Y-018852
X021392Y-021392
X021392Y-023932
X021392Y-026472
X021392Y-031552
X021392Y-034092
X023932Y-003612
X023932Y-006152
X023932Y-013772
X023932Y-018852
X023932Y-021392
X023932Y-023932
X023932Y-026472
X023932Y-031552
X023932Y-034092
X026472Y-003612
X026472Y-008692
X026472Y-011232
X026472Y-013772
X026472Y-018852
X026472Y-021392
X026472Y-023932
X026472Y-026472
X026472Y-029012
X026472Y-031552
X026472Y-034092
X029012Y-006152
X029012Y-008692
X029012Y-011232
X029012Y-013772
X029012Y-018852
X029012Y-021392
X029012Y-023932
X029012Y-026472
X029012Y-029012
X029012Y-031552
X029012Y-034092
X031552Y-003612
X031552Y-006152
X031552Y-008692
X031552Y-011232
X031552Y-013772
X031552Y-018852
X031552Y-021392
X031552Y-023932
X031552Y-026472
X031552Y-029012
X031552Y-031552
X031552Y-034092
X034092Y-006152
X034092Y-008692
X034092Y-011232
X034092Y-013772
X034092Y-018852
X034092Y-021392
X034092Y-023932
X034092Y-026472
X034092Y-029012
X034092Y-031552
X034092Y-034092
X036632Y-001072
X036632Y-003612
X036632Y-008692
X036632Y-011232
X036632Y-013772
X036632Y-018852
X036632Y-021392
X036632Y-023932
X036632Y-026472
X036632Y-029012
X036632Y-031552
X036632Y-034092
X039172Y-001072
X039172Y-003612
X039172Y-006152
X039172Y-011232
X039172Y-013772
X039172Y-018852
X039172Y-021392
X039172Y-023932
X039172Y-026472
X039172Y-029012
X039172Y-031552
X039172Y-034092
X041712Y-001072
X041712Y-003612
X041712Y-006152
X041712Y-008692
X041712Y-013772
X041712Y-018852
X041712Y-021392
X041712Y-023932
X041712Y-026472
X041712Y-029012
X041712Y-031552
X041712Y-034092
X044252Y-001072
X044252Y-003612
X044252Y-006152
X044252Y-008692
X044252Y-011232
X044252Y-018852
X044252Y-021392
X044252Y-023932
X044252Y-026472
X044252Y-029012
X044252Y-031552
X044252Y-034092
X046792Y-001072
X046792Y-003612
X046792Y-006152
X046792Y-008692
X046792Y-011232
X046792Y-013772
X046792Y-018852
X046792Y-021392
X046792Y-023932
X046792Y-026472
X046792Y-029012
X046792Y-031552
X046792Y-034092
X049332Y-001072
X049332Y-003612
X049332Y-006152
X049332Y-008692
X049332Y-011232
X049332Y-013772
X049332Y-021392
X049332Y-023932
X049332Y-026472
X049332Y-029012
X049332Y-031552
X049332Y-034092
X051872Y-001072
X051872Y-003612
X051872Y-006152
X051872Y-008692
X051872Y-011232
X051872Y-013772
X051872Y-018852
X051872Y-023932
X051872Y-026472
X051872Y-029012
X051872Y-031552
X051872Y-034092
X054412Y-001072
X054412Y-003612
X054412Y-006152
X054412Y-008692
X054412Y-011232
X054412Y-013772
X054412Y-018852
X054412Y-021392
X054412Y-023932
X054412Y-026472
X054412Y-029012
X054412Y-031552
X054412Y-034092
X056952Y-001072
X056952Y-003612
X056952Y-006152
X056952Y-008692
X056952Y-011232
X056952Y-013772
X056952Y-018852
X056952Y-021392
X056952Y-023932
X056952Y-026472
X056952Y-029012
X056952Y-031552
X056952Y-034092
X059492Y-001072
X059492Y-003612
X059492Y-006152
X059492Y-008692
X059492Y-011232
X059492Y-013772
X059492Y-021392
X059492Y-023932
X059492Y-026472
X059492Y-029012
X059492Y-031552
X059492Y-034092
X062032Y-001072
X062032Y-003612
X062032Y-018852
X062032Y-031552
X062032Y-034092
X064572Y-001072
X064572Y-003612
X064572Y-006152
X064572Y-018852
X064572Y-031552
X064572Y-034092
X067112Y-006152
M30
