G04 Layer: TopPasteMaskLayer*
G04 EasyEDA v6.5.47, 2024-12-05 11:28:38*
G04 e01d2f149ab64b4ea65648a7afd3b608,d06a1f6f384c4cbbbfe4d72778ff38a8,10*
G04 Gerber Generator version 0.2*
G04 Scale: 100 percent, Rotated: No, Reflected: No *
G04 Dimensions in millimeters *
G04 leading zeros omitted , absolute positions ,4 integer and 5 decimal *
%FSLAX45Y45*%
%MOMM*%

%ADD10R,1.1000X1.8000*%
%ADD11O,0.7670038X0.36400740000000004*%

%LPD*%
G36*
X6015736Y-1674774D02*
G01*
X6011722Y-1678787D01*
X6011722Y-1724812D01*
X6015736Y-1728825D01*
X6065774Y-1728825D01*
X6069787Y-1724812D01*
X6069787Y-1678787D01*
X6065774Y-1674774D01*
G37*
G36*
X6100826Y-1674774D02*
G01*
X6096812Y-1678787D01*
X6096812Y-1724812D01*
X6100826Y-1728825D01*
X6150864Y-1728825D01*
X6154877Y-1724812D01*
X6154877Y-1678787D01*
X6150864Y-1674774D01*
G37*
G36*
X6015736Y-1827174D02*
G01*
X6011722Y-1831187D01*
X6011722Y-1877212D01*
X6015736Y-1881225D01*
X6065774Y-1881225D01*
X6069787Y-1877212D01*
X6069787Y-1831187D01*
X6065774Y-1827174D01*
G37*
G36*
X6100826Y-1827174D02*
G01*
X6096812Y-1831187D01*
X6096812Y-1877212D01*
X6100826Y-1881225D01*
X6150864Y-1881225D01*
X6154877Y-1877212D01*
X6154877Y-1831187D01*
X6150864Y-1827174D01*
G37*
G36*
X6015736Y-1979574D02*
G01*
X6011722Y-1983587D01*
X6011722Y-2029612D01*
X6015736Y-2033625D01*
X6065774Y-2033625D01*
X6069787Y-2029612D01*
X6069787Y-1983587D01*
X6065774Y-1979574D01*
G37*
G36*
X6100826Y-1979574D02*
G01*
X6096812Y-1983587D01*
X6096812Y-2029612D01*
X6100826Y-2033625D01*
X6150864Y-2033625D01*
X6154877Y-2029612D01*
X6154877Y-1983587D01*
X6150864Y-1979574D01*
G37*
G36*
X6022695Y-2240483D02*
G01*
X6017717Y-2247493D01*
X6017717Y-2295499D01*
X6022695Y-2300478D01*
X6067704Y-2300478D01*
X6072682Y-2295499D01*
X6072682Y-2247493D01*
X6067704Y-2240483D01*
G37*
G36*
X6022695Y-2144522D02*
G01*
X6017717Y-2149500D01*
X6017717Y-2197506D01*
X6022695Y-2204516D01*
X6067704Y-2204516D01*
X6072682Y-2197506D01*
X6072682Y-2149500D01*
X6067704Y-2144522D01*
G37*
G36*
X6187795Y-2240483D02*
G01*
X6182817Y-2247493D01*
X6182817Y-2295499D01*
X6187795Y-2300478D01*
X6232804Y-2300478D01*
X6237782Y-2295499D01*
X6237782Y-2247493D01*
X6232804Y-2240483D01*
G37*
G36*
X6187795Y-2144522D02*
G01*
X6182817Y-2149500D01*
X6182817Y-2197506D01*
X6187795Y-2204516D01*
X6232804Y-2204516D01*
X6237782Y-2197506D01*
X6237782Y-2149500D01*
X6232804Y-2144522D01*
G37*
G36*
X1997811Y-756513D02*
G01*
X1992782Y-761492D01*
X1993290Y-802487D01*
X2037283Y-802487D01*
X2037283Y-847496D01*
X1992782Y-847496D01*
X1992782Y-889508D01*
X1997811Y-894486D01*
X2112772Y-894486D01*
X2117801Y-889508D01*
X2117801Y-761492D01*
X2112772Y-756513D01*
G37*
G36*
X1798777Y-756513D02*
G01*
X1793798Y-761492D01*
X1793798Y-889508D01*
X1798777Y-894486D01*
X1913788Y-894486D01*
X1918817Y-889508D01*
X1918309Y-847496D01*
X1874316Y-847496D01*
X1874316Y-802487D01*
X1919325Y-802487D01*
X1918817Y-761492D01*
X1913788Y-756513D01*
G37*
D10*
G01*
X2365298Y-2995498D03*
G01*
X2215311Y-2995498D03*
G01*
X2065299Y-2995498D03*
G01*
X1915312Y-2995498D03*
G01*
X1765300Y-2995498D03*
G01*
X1615287Y-2995498D03*
G01*
X1465300Y-2995498D03*
G01*
X1315288Y-2995498D03*
G01*
X1165301Y-2995498D03*
G01*
X1165301Y-1195501D03*
G01*
X1315288Y-1195501D03*
G01*
X1465300Y-1195501D03*
G01*
X1615287Y-1195501D03*
G01*
X1765300Y-1195501D03*
G01*
X1915312Y-1195501D03*
G01*
X2065299Y-1195501D03*
G01*
X2215311Y-1195501D03*
G01*
X2365298Y-1195501D03*
D11*
G01*
X6351143Y-1883689D03*
G01*
X6351143Y-1948713D03*
G01*
X6351143Y-2013712D03*
G01*
X6351143Y-2078710D03*
G01*
X6602856Y-2078710D03*
G01*
X6602856Y-2013712D03*
G01*
X6602856Y-1948713D03*
G01*
X6602856Y-1883689D03*
M02*
