G04 Layer: BottomSilkscreenLayer*
G04 EasyEDA v6.5.47, 2024-12-05 11:28:38*
G04 e01d2f149ab64b4ea65648a7afd3b608,d06a1f6f384c4cbbbfe4d72778ff38a8,10*
G04 Gerber Generator version 0.2*
G04 Scale: 100 percent, Rotated: No, Reflected: No *
G04 Dimensions in millimeters *
G04 leading zeros omitted , absolute positions ,4 integer and 5 decimal *
%FSLAX45Y45*%
%MOMM*%

%ADD10C,0.2032*%
%ADD11C,0.1524*%
%ADD12C,0.2540*%

%LPD*%
D10*
X620163Y-296009D02*
G01*
X620163Y-173281D01*
X558800Y-234645D02*
G01*
X681527Y-234645D01*
X740163Y-316463D02*
G01*
X815162Y-316463D01*
X774252Y-261917D01*
X794707Y-261917D01*
X808344Y-255099D01*
X815162Y-248282D01*
X821982Y-227827D01*
X821982Y-214190D01*
X815162Y-193735D01*
X801527Y-180101D01*
X781072Y-173281D01*
X760618Y-173281D01*
X740163Y-180101D01*
X733346Y-186918D01*
X726526Y-200553D01*
X873800Y-207373D02*
G01*
X866980Y-200553D01*
X873800Y-193735D01*
X880618Y-200553D01*
X873800Y-207373D01*
X939253Y-316463D02*
G01*
X1014252Y-316463D01*
X973345Y-261917D01*
X993800Y-261917D01*
X1007435Y-255099D01*
X1014252Y-248282D01*
X1021072Y-227827D01*
X1021072Y-214190D01*
X1014252Y-193735D01*
X1000617Y-180101D01*
X980163Y-173281D01*
X959708Y-173281D01*
X939253Y-180101D01*
X932436Y-186918D01*
X925616Y-200553D01*
X1066071Y-268737D02*
G01*
X1106980Y-173281D01*
X1147889Y-268737D02*
G01*
X1106980Y-173281D01*
X2304318Y-294137D02*
G01*
X2304318Y-185046D01*
X2297501Y-164592D01*
X2290681Y-157772D01*
X2277046Y-150954D01*
X2256591Y-150954D01*
X2242954Y-157772D01*
X2304318Y-273682D02*
G01*
X2290681Y-287317D01*
X2277046Y-294137D01*
X2256591Y-294137D01*
X2242954Y-287317D01*
X2229317Y-273682D01*
X2222500Y-253227D01*
X2222500Y-239590D01*
X2229317Y-219135D01*
X2242954Y-205498D01*
X2256591Y-198681D01*
X2277046Y-198681D01*
X2290681Y-205498D01*
X2304318Y-219135D01*
X2349317Y-294137D02*
G01*
X2349317Y-198681D01*
X2349317Y-266862D02*
G01*
X2369771Y-287317D01*
X2383409Y-294137D01*
X2403863Y-294137D01*
X2417500Y-287317D01*
X2424318Y-266862D01*
X2424318Y-198681D01*
X2551135Y-341863D02*
G01*
X2551135Y-198681D01*
X2551135Y-273682D02*
G01*
X2537500Y-287317D01*
X2523863Y-294137D01*
X2503408Y-294137D01*
X2489771Y-287317D01*
X2476136Y-273682D01*
X2469316Y-253227D01*
X2469316Y-239590D01*
X2476136Y-219135D01*
X2489771Y-205498D01*
X2503408Y-198681D01*
X2523863Y-198681D01*
X2537500Y-205498D01*
X2551135Y-219135D01*
X3429000Y-316463D02*
G01*
X3429000Y-173281D01*
X3429000Y-248282D02*
G01*
X3442637Y-261917D01*
X3456271Y-268737D01*
X3476726Y-268737D01*
X3490363Y-261917D01*
X3504001Y-248282D01*
X3510818Y-227827D01*
X3510818Y-214190D01*
X3504001Y-193735D01*
X3490363Y-180098D01*
X3476726Y-173281D01*
X3456271Y-173281D01*
X3442637Y-180098D01*
X3429000Y-193735D01*
X3589909Y-268737D02*
G01*
X3576271Y-261917D01*
X3562637Y-248282D01*
X3555817Y-227827D01*
X3555817Y-214190D01*
X3562637Y-193735D01*
X3576271Y-180098D01*
X3589909Y-173281D01*
X3610363Y-173281D01*
X3624000Y-180098D01*
X3637635Y-193735D01*
X3644452Y-214190D01*
X3644452Y-227827D01*
X3637635Y-248282D01*
X3624000Y-261917D01*
X3610363Y-268737D01*
X3589909Y-268737D01*
X3723546Y-268737D02*
G01*
X3709908Y-261917D01*
X3696271Y-248282D01*
X3689454Y-227827D01*
X3689454Y-214190D01*
X3696271Y-193735D01*
X3709908Y-180098D01*
X3723546Y-173281D01*
X3744000Y-173281D01*
X3757635Y-180098D01*
X3771272Y-193735D01*
X3778089Y-214190D01*
X3778089Y-227827D01*
X3771272Y-248282D01*
X3757635Y-261917D01*
X3744000Y-268737D01*
X3723546Y-268737D01*
X3843545Y-316463D02*
G01*
X3843545Y-200553D01*
X3850363Y-180098D01*
X3864000Y-173281D01*
X3877635Y-173281D01*
X3823091Y-268737D02*
G01*
X3870817Y-268737D01*
G36*
X2847898Y-311861D02*
G01*
X2847898Y-390347D01*
X2878378Y-390347D01*
X2878378Y-311861D01*
G37*
G36*
X2847898Y-66852D02*
G01*
X2847898Y-145338D01*
X2878378Y-145338D01*
X2878378Y-66852D01*
G37*
G36*
X2637485Y-1188516D02*
G01*
X2637485Y-1228496D01*
X2827477Y-1228496D01*
X2827477Y-1188516D01*
G37*
G36*
X2712516Y-1113485D02*
G01*
X2712516Y-1303528D01*
X2752496Y-1303528D01*
X2752496Y-1113485D01*
G37*
G36*
X4157522Y-1188516D02*
G01*
X4157522Y-1228496D01*
X4347514Y-1228496D01*
X4347514Y-1188516D01*
G37*
G36*
X4232503Y-2633472D02*
G01*
X4232503Y-2823514D01*
X4272483Y-2823514D01*
X4272483Y-2633472D01*
G37*
G36*
X4157522Y-2708503D02*
G01*
X4157522Y-2748483D01*
X4347514Y-2748483D01*
X4347514Y-2708503D01*
G37*
G36*
X2637536Y-2708503D02*
G01*
X2637536Y-2748483D01*
X2827528Y-2748483D01*
X2827528Y-2708503D01*
G37*
D11*
X2870779Y-382719D02*
G01*
X3276020Y-382719D01*
X3276020Y-382719D02*
G01*
X3276020Y-316920D01*
X2870779Y-74480D02*
G01*
X3276020Y-74480D01*
X3276020Y-74480D02*
G01*
X3276020Y-140279D01*
D12*
X5886706Y-468510D02*
G01*
X5782279Y-468510D01*
X4637496Y-2839506D02*
G01*
X4637496Y-2949503D01*
X2097504Y-2949508D01*
X2097504Y-2949508D02*
G01*
X2097504Y-2429504D01*
X4637496Y-2429510D01*
X4637496Y-2539507D01*
X4887495Y-2539507D01*
X4887495Y-2839506D01*
X4637496Y-2839506D01*
X4887495Y-987511D02*
G01*
X4887495Y-1507510D01*
X2347488Y-1507510D01*
X2347488Y-1397513D01*
X2097496Y-1397513D01*
X2097496Y-1097513D01*
X2347488Y-1097513D01*
X2347488Y-1097513D02*
G01*
X2347488Y-987511D01*
X4887495Y-987511D01*
X5886706Y-468510D02*
G01*
X6492491Y-468510D01*
X502503Y-906894D02*
G01*
X502503Y-468510D01*
X5782279Y-468510D01*
X502503Y-2348890D02*
G01*
X502503Y-1588122D01*
X6492491Y-3030118D02*
G01*
X6492491Y-3468504D01*
X502503Y-3468504D01*
X502503Y-3030118D01*
X6492491Y-1588119D02*
G01*
X6492491Y-2348890D01*
X6492491Y-468510D02*
G01*
X6492491Y-906894D01*
G75*
G01
X3163392Y-228600D02*
G03X3163392Y-228600I-89992J0D01*
G75*
G01
X2263597Y-63500D02*
G03X2263597Y-63500I-28397J0D01*
M02*
