G04 Layer: BottomLayer*
G04 EasyEDA v6.5.47, 2024-12-05 11:28:38*
G04 e01d2f149ab64b4ea65648a7afd3b608,d06a1f6f384c4cbbbfe4d72778ff38a8,10*
G04 Gerber Generator version 0.2*
G04 Scale: 100 percent, Rotated: No, Reflected: No *
G04 Dimensions in millimeters *
G04 leading zeros omitted , absolute positions ,4 integer and 5 decimal *
%FSLAX45Y45*%
%MOMM*%

%AMMACRO1*21,1,$1,$2,0,0,$3*%
%ADD10C,0.2540*%
%ADD11R,1.2300X1.3600*%
%ADD12MACRO1,1.36X1.23X-90.0000*%
%ADD13O,1.7999964X3.5999928*%
%ADD14MACRO1,7.34X6.35X0.0000*%
%ADD15C,0.6100*%
%ADD16C,0.0175*%

%LPD*%
G36*
X36068Y-3473958D02*
G01*
X32156Y-3473196D01*
X28905Y-3470960D01*
X26670Y-3467709D01*
X25908Y-3463798D01*
X25908Y-3040278D01*
X26619Y-3036468D01*
X28702Y-3033268D01*
X31851Y-3031032D01*
X35610Y-3030118D01*
X39420Y-3030677D01*
X43738Y-3032201D01*
X50088Y-3032912D01*
X226669Y-3032912D01*
X226669Y-2854604D01*
X36068Y-2854604D01*
X32156Y-2853842D01*
X28905Y-2851607D01*
X26670Y-2848356D01*
X25908Y-2844444D01*
X25908Y-2534564D01*
X26670Y-2530652D01*
X28905Y-2527401D01*
X32156Y-2525166D01*
X36068Y-2524404D01*
X226669Y-2524404D01*
X226669Y-2346096D01*
X50088Y-2346096D01*
X43738Y-2346807D01*
X39420Y-2348331D01*
X35610Y-2348890D01*
X31851Y-2347976D01*
X28702Y-2345740D01*
X26619Y-2342540D01*
X25908Y-2338730D01*
X25908Y-1598269D01*
X26619Y-1594510D01*
X28702Y-1591259D01*
X31851Y-1589024D01*
X35610Y-1588109D01*
X39420Y-1588668D01*
X43738Y-1590192D01*
X50088Y-1590903D01*
X782929Y-1590903D01*
X789279Y-1590192D01*
X794715Y-1588312D01*
X799592Y-1585214D01*
X803706Y-1581099D01*
X806805Y-1576222D01*
X808685Y-1570736D01*
X809396Y-1564436D01*
X809396Y-1295501D01*
X810107Y-1291844D01*
X812038Y-1288643D01*
X814984Y-1286408D01*
X826160Y-1283157D01*
X832866Y-1279601D01*
X838708Y-1274775D01*
X843483Y-1268933D01*
X847039Y-1262278D01*
X849223Y-1255064D01*
X850036Y-1247038D01*
X850036Y-1202791D01*
X850798Y-1198880D01*
X853033Y-1195578D01*
X1275181Y-773379D01*
X1278077Y-771398D01*
X1281480Y-770483D01*
X1289558Y-769772D01*
X1299057Y-767232D01*
X1307947Y-763066D01*
X1315974Y-757428D01*
X1322933Y-750468D01*
X1328572Y-742442D01*
X1332738Y-733552D01*
X1335278Y-724052D01*
X1336141Y-714248D01*
X1335278Y-704443D01*
X1332738Y-694944D01*
X1328572Y-686054D01*
X1322933Y-678027D01*
X1321358Y-676402D01*
X1319123Y-673100D01*
X1318361Y-669239D01*
X1318361Y-452678D01*
X1319326Y-448360D01*
X1322070Y-444855D01*
X1325981Y-442874D01*
X1331214Y-441502D01*
X1344726Y-436168D01*
X1357477Y-429158D01*
X1369263Y-420573D01*
X1379880Y-410616D01*
X1389176Y-399440D01*
X1396949Y-387146D01*
X1403146Y-373938D01*
X1407668Y-360121D01*
X1410360Y-345846D01*
X1411325Y-330962D01*
X1411325Y-151638D01*
X1410360Y-136753D01*
X1407668Y-122478D01*
X1403146Y-108661D01*
X1396949Y-95453D01*
X1389176Y-83159D01*
X1379880Y-71983D01*
X1369263Y-62026D01*
X1357477Y-53441D01*
X1344726Y-46431D01*
X1342390Y-45516D01*
X1339037Y-43332D01*
X1336802Y-40081D01*
X1335989Y-36169D01*
X1336751Y-32258D01*
X1338935Y-28905D01*
X1342237Y-26670D01*
X1346149Y-25908D01*
X1498650Y-25908D01*
X1502562Y-26670D01*
X1505864Y-28905D01*
X1508048Y-32258D01*
X1508810Y-36169D01*
X1507998Y-40081D01*
X1505762Y-43332D01*
X1502410Y-45516D01*
X1500073Y-46431D01*
X1487322Y-53441D01*
X1475536Y-62026D01*
X1464919Y-71983D01*
X1455623Y-83159D01*
X1447850Y-95453D01*
X1441653Y-108661D01*
X1437132Y-122478D01*
X1434439Y-136753D01*
X1433474Y-151638D01*
X1433474Y-330962D01*
X1434439Y-345846D01*
X1437132Y-360121D01*
X1441653Y-373938D01*
X1447850Y-387146D01*
X1455623Y-399440D01*
X1464919Y-410616D01*
X1475536Y-420573D01*
X1487322Y-429158D01*
X1500073Y-436168D01*
X1504391Y-437845D01*
X1507744Y-440029D01*
X1509979Y-443382D01*
X1510792Y-447293D01*
X1510792Y-2817063D01*
X1511604Y-2825089D01*
X1513789Y-2832303D01*
X1517345Y-2839008D01*
X1522476Y-2845206D01*
X1531366Y-2854147D01*
X1533398Y-2857042D01*
X1534312Y-2860446D01*
X1535023Y-2868472D01*
X1537563Y-2877972D01*
X1541729Y-2886862D01*
X1547317Y-2894939D01*
X1554276Y-2901899D01*
X1562354Y-2907487D01*
X1571244Y-2911652D01*
X1580743Y-2914192D01*
X1590548Y-2915056D01*
X1600301Y-2914192D01*
X1609801Y-2911652D01*
X1618691Y-2907487D01*
X1626768Y-2901899D01*
X1633728Y-2894939D01*
X1639316Y-2886862D01*
X1643481Y-2877972D01*
X1646021Y-2868472D01*
X1646885Y-2858719D01*
X1646021Y-2848914D01*
X1643481Y-2839415D01*
X1639316Y-2830525D01*
X1633728Y-2822448D01*
X1626768Y-2815488D01*
X1618691Y-2809900D01*
X1609801Y-2805734D01*
X1600301Y-2803194D01*
X1597304Y-2802940D01*
X1593697Y-2801924D01*
X1590700Y-2799638D01*
X1588719Y-2796489D01*
X1588008Y-2792780D01*
X1588008Y-447293D01*
X1588820Y-443382D01*
X1591056Y-440029D01*
X1594408Y-437845D01*
X1598726Y-436168D01*
X1611477Y-429158D01*
X1623263Y-420573D01*
X1633880Y-410616D01*
X1643176Y-399440D01*
X1650949Y-387146D01*
X1657146Y-373938D01*
X1661668Y-360121D01*
X1664360Y-345846D01*
X1665325Y-330962D01*
X1665325Y-151638D01*
X1664360Y-136753D01*
X1661668Y-122478D01*
X1657146Y-108661D01*
X1650949Y-95453D01*
X1643176Y-83159D01*
X1633880Y-71983D01*
X1623263Y-62026D01*
X1611477Y-53441D01*
X1598726Y-46431D01*
X1596390Y-45516D01*
X1593037Y-43332D01*
X1590802Y-40081D01*
X1589989Y-36169D01*
X1590751Y-32258D01*
X1592935Y-28905D01*
X1596237Y-26670D01*
X1600149Y-25908D01*
X1752650Y-25908D01*
X1756562Y-26670D01*
X1759864Y-28905D01*
X1762048Y-32258D01*
X1762810Y-36169D01*
X1761998Y-40081D01*
X1759762Y-43332D01*
X1756410Y-45516D01*
X1754073Y-46431D01*
X1741322Y-53441D01*
X1729536Y-62026D01*
X1718919Y-71983D01*
X1709623Y-83159D01*
X1701850Y-95453D01*
X1695653Y-108661D01*
X1691132Y-122478D01*
X1688439Y-136753D01*
X1687474Y-151638D01*
X1687474Y-330962D01*
X1688439Y-345846D01*
X1691132Y-360121D01*
X1695653Y-373938D01*
X1701850Y-387146D01*
X1709623Y-399440D01*
X1718919Y-410616D01*
X1729536Y-420573D01*
X1741322Y-429158D01*
X1754073Y-436168D01*
X1758391Y-437845D01*
X1761743Y-440029D01*
X1763979Y-443382D01*
X1764792Y-447293D01*
X1764792Y-2807462D01*
X1764030Y-2811373D01*
X1761794Y-2814675D01*
X1755597Y-2820873D01*
X1749958Y-2828950D01*
X1745792Y-2837840D01*
X1743252Y-2847340D01*
X1742389Y-2857144D01*
X1743252Y-2866898D01*
X1745792Y-2876397D01*
X1749958Y-2885287D01*
X1755597Y-2893364D01*
X1762556Y-2900324D01*
X1770583Y-2905912D01*
X1779473Y-2910078D01*
X1788972Y-2912618D01*
X1798777Y-2913481D01*
X1808581Y-2912618D01*
X1818081Y-2910078D01*
X1826971Y-2905912D01*
X1834997Y-2900324D01*
X1841957Y-2893364D01*
X1847596Y-2885287D01*
X1851761Y-2876397D01*
X1854301Y-2866898D01*
X1855165Y-2857144D01*
X1854301Y-2847340D01*
X1851761Y-2837840D01*
X1847596Y-2828950D01*
X1843836Y-2823565D01*
X1842465Y-2820822D01*
X1842007Y-2817774D01*
X1842007Y-447293D01*
X1842820Y-443382D01*
X1845056Y-440029D01*
X1848408Y-437845D01*
X1852726Y-436168D01*
X1865477Y-429158D01*
X1877263Y-420573D01*
X1887880Y-410616D01*
X1897176Y-399440D01*
X1904949Y-387146D01*
X1911146Y-373938D01*
X1915668Y-360121D01*
X1918360Y-345846D01*
X1919325Y-330962D01*
X1919325Y-151638D01*
X1918360Y-136753D01*
X1915668Y-122478D01*
X1911146Y-108661D01*
X1904949Y-95453D01*
X1897176Y-83159D01*
X1887880Y-71983D01*
X1877263Y-62026D01*
X1865477Y-53441D01*
X1852726Y-46431D01*
X1850389Y-45516D01*
X1847037Y-43332D01*
X1844802Y-40081D01*
X1843989Y-36169D01*
X1844751Y-32258D01*
X1846935Y-28905D01*
X1850237Y-26670D01*
X1854149Y-25908D01*
X2006650Y-25908D01*
X2010562Y-26670D01*
X2012340Y-26670D01*
X2016201Y-25908D01*
X2098598Y-25908D01*
X2102459Y-26670D01*
X2104237Y-26670D01*
X2108149Y-25908D01*
X6963918Y-25908D01*
X6967829Y-26670D01*
X6971080Y-28905D01*
X6973316Y-32156D01*
X6974078Y-36068D01*
X6974078Y-907897D01*
X6973316Y-911809D01*
X6971080Y-915111D01*
X6967728Y-917295D01*
X6963867Y-918057D01*
X6959955Y-917244D01*
X6956653Y-915009D01*
X6951573Y-909777D01*
X6946696Y-906729D01*
X6941261Y-904798D01*
X6934911Y-904087D01*
X6202070Y-904087D01*
X6195720Y-904798D01*
X6190284Y-906729D01*
X6185357Y-909828D01*
X6181293Y-913892D01*
X6178194Y-918819D01*
X6176314Y-924255D01*
X6175603Y-930554D01*
X6175603Y-1564436D01*
X6176314Y-1570736D01*
X6178194Y-1576222D01*
X6181293Y-1581099D01*
X6185357Y-1585214D01*
X6190284Y-1588312D01*
X6195720Y-1590192D01*
X6202070Y-1590903D01*
X6519722Y-1590903D01*
X6523634Y-1591665D01*
X6526885Y-1593900D01*
X6529120Y-1597202D01*
X6529882Y-1601063D01*
X6529882Y-2335936D01*
X6529120Y-2339848D01*
X6526885Y-2343099D01*
X6523634Y-2345334D01*
X6519722Y-2346096D01*
X6202070Y-2346096D01*
X6195720Y-2346807D01*
X6190284Y-2348738D01*
X6185357Y-2351786D01*
X6181293Y-2355900D01*
X6178194Y-2360777D01*
X6176314Y-2366264D01*
X6175603Y-2372563D01*
X6175603Y-3006445D01*
X6176314Y-3012744D01*
X6178194Y-3018231D01*
X6181293Y-3023108D01*
X6185357Y-3027222D01*
X6190284Y-3030270D01*
X6195720Y-3032201D01*
X6202070Y-3032912D01*
X6934911Y-3032912D01*
X6941261Y-3032201D01*
X6946696Y-3030270D01*
X6951573Y-3027222D01*
X6956653Y-3022041D01*
X6959955Y-3019755D01*
X6963867Y-3018993D01*
X6967728Y-3019704D01*
X6971080Y-3021939D01*
X6973316Y-3025241D01*
X6974078Y-3029153D01*
X6974078Y-3463798D01*
X6973316Y-3467709D01*
X6971080Y-3470960D01*
X6967829Y-3473196D01*
X6963918Y-3473958D01*
G37*

%LPC*%
G36*
X254000Y-3404108D02*
G01*
X269392Y-3403142D01*
X284530Y-3400399D01*
X299212Y-3395827D01*
X313232Y-3389477D01*
X326440Y-3381501D01*
X338531Y-3372002D01*
X349402Y-3361131D01*
X358902Y-3349040D01*
X366877Y-3335832D01*
X373227Y-3321812D01*
X377799Y-3307130D01*
X380542Y-3291992D01*
X381508Y-3276600D01*
X380542Y-3261207D01*
X377799Y-3246069D01*
X373227Y-3231388D01*
X366877Y-3217367D01*
X358902Y-3204159D01*
X349402Y-3192068D01*
X338531Y-3181197D01*
X326440Y-3171698D01*
X313232Y-3163722D01*
X299212Y-3157372D01*
X284530Y-3152800D01*
X269392Y-3150057D01*
X254000Y-3149092D01*
X238607Y-3150057D01*
X223469Y-3152800D01*
X208788Y-3157372D01*
X194767Y-3163722D01*
X181559Y-3171698D01*
X169468Y-3181197D01*
X158597Y-3192068D01*
X149098Y-3204159D01*
X141122Y-3217367D01*
X134772Y-3231388D01*
X130200Y-3246069D01*
X127457Y-3261207D01*
X126492Y-3276600D01*
X127457Y-3291992D01*
X130200Y-3307130D01*
X134772Y-3321812D01*
X141122Y-3335832D01*
X149098Y-3349040D01*
X158597Y-3361131D01*
X169468Y-3372002D01*
X181559Y-3381501D01*
X194767Y-3389477D01*
X208788Y-3395827D01*
X223469Y-3400399D01*
X238607Y-3403142D01*
G37*
G36*
X6756400Y-3391408D02*
G01*
X6771792Y-3390442D01*
X6786930Y-3387699D01*
X6801612Y-3383127D01*
X6815632Y-3376777D01*
X6828840Y-3368801D01*
X6840931Y-3359302D01*
X6851802Y-3348431D01*
X6861302Y-3336340D01*
X6869277Y-3323132D01*
X6875627Y-3309112D01*
X6880199Y-3294430D01*
X6882942Y-3279292D01*
X6883908Y-3263900D01*
X6882942Y-3248507D01*
X6880199Y-3233369D01*
X6875627Y-3218688D01*
X6869277Y-3204667D01*
X6861302Y-3191459D01*
X6851802Y-3179368D01*
X6840931Y-3168497D01*
X6828840Y-3158998D01*
X6815632Y-3151022D01*
X6801612Y-3144672D01*
X6786930Y-3140100D01*
X6771792Y-3137357D01*
X6756400Y-3136392D01*
X6741007Y-3137357D01*
X6725869Y-3140100D01*
X6711188Y-3144672D01*
X6697167Y-3151022D01*
X6683959Y-3158998D01*
X6671868Y-3168497D01*
X6660997Y-3179368D01*
X6651498Y-3191459D01*
X6643522Y-3204667D01*
X6637172Y-3218688D01*
X6632600Y-3233369D01*
X6629857Y-3248507D01*
X6628892Y-3263900D01*
X6629857Y-3279292D01*
X6632600Y-3294430D01*
X6637172Y-3309112D01*
X6643522Y-3323132D01*
X6651498Y-3336340D01*
X6660997Y-3348431D01*
X6671868Y-3359302D01*
X6683959Y-3368801D01*
X6697167Y-3376777D01*
X6711188Y-3383127D01*
X6725869Y-3387699D01*
X6741007Y-3390442D01*
G37*
G36*
X606348Y-3032912D02*
G01*
X782929Y-3032912D01*
X789279Y-3032201D01*
X794715Y-3030270D01*
X799592Y-3027222D01*
X803706Y-3023108D01*
X806805Y-3018231D01*
X808685Y-3012744D01*
X809396Y-3006445D01*
X809396Y-2854604D01*
X606348Y-2854604D01*
G37*
G36*
X606348Y-2524404D02*
G01*
X809396Y-2524404D01*
X809396Y-2372563D01*
X808685Y-2366264D01*
X806805Y-2360777D01*
X803706Y-2355900D01*
X799592Y-2351786D01*
X794715Y-2348738D01*
X789279Y-2346807D01*
X782929Y-2346096D01*
X606348Y-2346096D01*
G37*
G36*
X6098590Y-1986788D02*
G01*
X6108395Y-1985924D01*
X6117894Y-1983384D01*
X6126784Y-1979218D01*
X6134811Y-1973580D01*
X6141770Y-1966620D01*
X6147409Y-1958593D01*
X6151575Y-1949704D01*
X6154115Y-1940204D01*
X6154978Y-1930400D01*
X6154115Y-1920595D01*
X6151575Y-1911096D01*
X6147409Y-1902206D01*
X6141770Y-1894179D01*
X6134811Y-1887220D01*
X6126784Y-1881581D01*
X6117894Y-1877415D01*
X6108395Y-1874875D01*
X6100318Y-1874164D01*
X6096914Y-1873250D01*
X6094018Y-1871268D01*
X6039154Y-1816354D01*
X6036919Y-1813052D01*
X6036157Y-1809140D01*
X6036157Y-1582572D01*
X6036919Y-1578711D01*
X6039154Y-1575409D01*
X6040729Y-1573784D01*
X6046368Y-1565757D01*
X6050534Y-1556867D01*
X6053074Y-1547368D01*
X6053937Y-1537563D01*
X6053074Y-1527759D01*
X6050534Y-1518259D01*
X6046368Y-1509369D01*
X6040729Y-1501343D01*
X6033770Y-1494383D01*
X6025743Y-1488744D01*
X6016853Y-1484579D01*
X6007354Y-1482039D01*
X5997549Y-1481175D01*
X5987745Y-1482039D01*
X5978245Y-1484579D01*
X5969355Y-1488744D01*
X5961329Y-1494383D01*
X5954369Y-1501343D01*
X5948730Y-1509369D01*
X5944565Y-1518259D01*
X5942025Y-1527759D01*
X5941161Y-1537563D01*
X5942025Y-1547368D01*
X5944565Y-1556867D01*
X5948730Y-1565757D01*
X5954369Y-1573784D01*
X5955944Y-1575409D01*
X5958179Y-1578711D01*
X5958941Y-1582572D01*
X5958941Y-1828850D01*
X5959754Y-1836877D01*
X5961938Y-1844090D01*
X5965494Y-1850796D01*
X5970625Y-1856993D01*
X6039459Y-1925828D01*
X6041440Y-1928723D01*
X6042355Y-1932127D01*
X6043066Y-1940204D01*
X6045606Y-1949704D01*
X6049772Y-1958593D01*
X6055410Y-1966620D01*
X6062370Y-1973580D01*
X6070396Y-1979218D01*
X6079286Y-1983384D01*
X6088786Y-1985924D01*
G37*
G36*
X2248814Y-1114806D02*
G01*
X2258568Y-1113942D01*
X2268067Y-1111402D01*
X2276957Y-1107236D01*
X2285034Y-1101648D01*
X2291994Y-1094689D01*
X2297582Y-1086612D01*
X2301748Y-1077722D01*
X2304288Y-1068222D01*
X2304999Y-1060196D01*
X2305913Y-1056792D01*
X2307945Y-1053896D01*
X2881833Y-479958D01*
X2886964Y-473760D01*
X2890520Y-467055D01*
X2892704Y-459841D01*
X2893517Y-451815D01*
X2893517Y-332689D01*
X2894279Y-328777D01*
X2896514Y-325475D01*
X2899765Y-323291D01*
X2903677Y-322529D01*
X2915818Y-322529D01*
X2922168Y-321818D01*
X2927604Y-319887D01*
X2932531Y-316788D01*
X2936595Y-312724D01*
X2939694Y-307797D01*
X2941574Y-302361D01*
X2942285Y-296011D01*
X2942285Y-161188D01*
X2941574Y-154838D01*
X2939694Y-149402D01*
X2936595Y-144475D01*
X2932531Y-140411D01*
X2927604Y-137312D01*
X2922168Y-135382D01*
X2915818Y-134670D01*
X2793949Y-134670D01*
X2787650Y-135382D01*
X2782163Y-137312D01*
X2777286Y-140411D01*
X2773172Y-144475D01*
X2770124Y-149402D01*
X2768193Y-154838D01*
X2767482Y-161188D01*
X2767482Y-296011D01*
X2768193Y-302361D01*
X2770124Y-307797D01*
X2773172Y-312724D01*
X2777286Y-316788D01*
X2782163Y-319887D01*
X2787650Y-321818D01*
X2793949Y-322529D01*
X2806141Y-322529D01*
X2810052Y-323291D01*
X2813304Y-325475D01*
X2815539Y-328777D01*
X2816301Y-332689D01*
X2816301Y-432104D01*
X2815539Y-436016D01*
X2813304Y-439318D01*
X2253335Y-999286D01*
X2250440Y-1001318D01*
X2247036Y-1002233D01*
X2239010Y-1002944D01*
X2229510Y-1005484D01*
X2220620Y-1009650D01*
X2212543Y-1015237D01*
X2205583Y-1022197D01*
X2199995Y-1030274D01*
X2195830Y-1039164D01*
X2193290Y-1048664D01*
X2192426Y-1058468D01*
X2193290Y-1068222D01*
X2195830Y-1077722D01*
X2199995Y-1086612D01*
X2205583Y-1094689D01*
X2212543Y-1101648D01*
X2220620Y-1107236D01*
X2229510Y-1111402D01*
X2239010Y-1113942D01*
G37*
G36*
X6201511Y-699414D02*
G01*
X6216548Y-698500D01*
X6231382Y-695756D01*
X6245758Y-691286D01*
X6259525Y-685088D01*
X6272428Y-677316D01*
X6284315Y-668020D01*
X6294983Y-657352D01*
X6304280Y-645464D01*
X6312052Y-632561D01*
X6318250Y-618794D01*
X6322720Y-604418D01*
X6325463Y-589584D01*
X6326378Y-574548D01*
X6325463Y-559460D01*
X6322720Y-544626D01*
X6318250Y-530250D01*
X6312052Y-516483D01*
X6304280Y-503580D01*
X6294983Y-491693D01*
X6284315Y-481025D01*
X6272428Y-471728D01*
X6259525Y-463956D01*
X6245758Y-457758D01*
X6231382Y-453288D01*
X6216548Y-450545D01*
X6201511Y-449630D01*
X6186424Y-450545D01*
X6171590Y-453288D01*
X6157214Y-457758D01*
X6143447Y-463956D01*
X6130544Y-471728D01*
X6118656Y-481025D01*
X6107988Y-491693D01*
X6098692Y-503580D01*
X6090920Y-516483D01*
X6084722Y-530250D01*
X6080252Y-544626D01*
X6077508Y-559460D01*
X6076594Y-574548D01*
X6077508Y-589584D01*
X6080252Y-604418D01*
X6084722Y-618794D01*
X6090920Y-632561D01*
X6098692Y-645464D01*
X6107988Y-657352D01*
X6118656Y-668020D01*
X6130544Y-677316D01*
X6143447Y-685088D01*
X6157214Y-691286D01*
X6171590Y-695756D01*
X6186424Y-698500D01*
G37*
G36*
X2108758Y-435051D02*
G01*
X2119477Y-429158D01*
X2131263Y-420573D01*
X2141880Y-410616D01*
X2151176Y-399440D01*
X2158949Y-387146D01*
X2165146Y-373938D01*
X2169668Y-360121D01*
X2172360Y-345846D01*
X2172868Y-337667D01*
X2108758Y-337667D01*
G37*
G36*
X2006041Y-435051D02*
G01*
X2006041Y-337667D01*
X1941931Y-337667D01*
X1942439Y-345846D01*
X1945132Y-360121D01*
X1949653Y-373938D01*
X1955850Y-387146D01*
X1963623Y-399440D01*
X1972919Y-410616D01*
X1983536Y-420573D01*
X1995322Y-429158D01*
G37*
G36*
X6743700Y-381508D02*
G01*
X6759092Y-380542D01*
X6774230Y-377799D01*
X6788912Y-373227D01*
X6802932Y-366877D01*
X6816140Y-358902D01*
X6828231Y-349402D01*
X6839102Y-338531D01*
X6848602Y-326440D01*
X6856577Y-313232D01*
X6862927Y-299212D01*
X6867499Y-284530D01*
X6870242Y-269392D01*
X6871208Y-254000D01*
X6870242Y-238607D01*
X6867499Y-223469D01*
X6862927Y-208788D01*
X6856577Y-194767D01*
X6848602Y-181559D01*
X6839102Y-169468D01*
X6828231Y-158597D01*
X6816140Y-149098D01*
X6802932Y-141122D01*
X6788912Y-134772D01*
X6774230Y-130200D01*
X6759092Y-127457D01*
X6743700Y-126492D01*
X6728307Y-127457D01*
X6713169Y-130200D01*
X6698488Y-134772D01*
X6684467Y-141122D01*
X6671259Y-149098D01*
X6659168Y-158597D01*
X6648297Y-169468D01*
X6638798Y-181559D01*
X6630822Y-194767D01*
X6624472Y-208788D01*
X6619900Y-223469D01*
X6617157Y-238607D01*
X6616192Y-254000D01*
X6617157Y-269392D01*
X6619900Y-284530D01*
X6624472Y-299212D01*
X6630822Y-313232D01*
X6638798Y-326440D01*
X6648297Y-338531D01*
X6659168Y-349402D01*
X6671259Y-358902D01*
X6684467Y-366877D01*
X6698488Y-373227D01*
X6713169Y-377799D01*
X6728307Y-380542D01*
G37*
G36*
X3329025Y-322529D02*
G01*
X3352850Y-322529D01*
X3359150Y-321818D01*
X3364636Y-319887D01*
X3369513Y-316788D01*
X3373628Y-312724D01*
X3376676Y-307797D01*
X3378606Y-302361D01*
X3379317Y-296011D01*
X3379317Y-268935D01*
X3329025Y-268935D01*
G37*
G36*
X3230981Y-322529D02*
G01*
X3254806Y-322529D01*
X3254806Y-268935D01*
X3204514Y-268935D01*
X3204514Y-296011D01*
X3205226Y-302361D01*
X3207105Y-307797D01*
X3210204Y-312724D01*
X3214268Y-316788D01*
X3219196Y-319887D01*
X3224631Y-321818D01*
G37*
G36*
X3329025Y-188264D02*
G01*
X3379317Y-188264D01*
X3379317Y-161188D01*
X3378606Y-154838D01*
X3376676Y-149402D01*
X3373628Y-144475D01*
X3369513Y-140411D01*
X3364636Y-137312D01*
X3359150Y-135382D01*
X3352850Y-134670D01*
X3329025Y-134670D01*
G37*
G36*
X3204514Y-188264D02*
G01*
X3254806Y-188264D01*
X3254806Y-134670D01*
X3230981Y-134670D01*
X3224631Y-135382D01*
X3219196Y-137312D01*
X3214268Y-140411D01*
X3210204Y-144475D01*
X3207105Y-149402D01*
X3205226Y-154838D01*
X3204514Y-161188D01*
G37*
G36*
X2108758Y-144932D02*
G01*
X2172868Y-144932D01*
X2172360Y-136753D01*
X2169668Y-122478D01*
X2165146Y-108661D01*
X2158949Y-95453D01*
X2151176Y-83159D01*
X2141880Y-71983D01*
X2131263Y-62026D01*
X2119477Y-53441D01*
X2108758Y-47548D01*
G37*
G36*
X1941931Y-144932D02*
G01*
X2006041Y-144932D01*
X2006041Y-47548D01*
X1995322Y-53441D01*
X1983536Y-62026D01*
X1972919Y-71983D01*
X1963623Y-83159D01*
X1955850Y-95453D01*
X1949653Y-108661D01*
X1945132Y-122478D01*
X1942439Y-136753D01*
G37*

%LPD*%
D10*
X1549400Y-241300D02*
G01*
X1549400Y-2817571D01*
X1590522Y-2858693D01*
X2057400Y-170002D02*
G01*
X1918030Y-30632D01*
X1492250Y-30632D01*
X1422400Y-100482D01*
X1422400Y-1227404D01*
X1292885Y-1356918D01*
X1292885Y-1356918D02*
G01*
X1292885Y-1467713D01*
X416509Y-2344089D01*
X416509Y-2689504D02*
G01*
X416509Y-2344089D01*
X2057400Y-170002D02*
G01*
X2057400Y-241300D01*
X3202482Y-228600D02*
G01*
X3098368Y-124485D01*
X2102916Y-124485D01*
X2057400Y-170002D01*
X3254883Y-228600D02*
G01*
X5199354Y-2173071D01*
X5199354Y-2277008D01*
X3291890Y-228600D02*
G01*
X3254883Y-228600D01*
X3247186Y-228600D02*
G01*
X3202482Y-228600D01*
X3247186Y-228600D02*
G01*
X3254883Y-228600D01*
X416509Y-1247520D02*
G01*
X811428Y-1247520D01*
X811428Y-1247520D02*
G01*
X811428Y-1182573D01*
X1279753Y-714247D01*
X1279753Y-714247D02*
G01*
X1279753Y-256946D01*
X1295400Y-241300D01*
X1803400Y-241300D02*
G01*
X1803400Y-2852496D01*
X1798777Y-2857119D01*
X6098590Y-1930400D02*
G01*
X5997549Y-1829358D01*
X5997549Y-1537563D01*
X6568490Y-2689504D02*
G01*
X6568490Y-1247495D01*
X2854909Y-228600D02*
G01*
X2854909Y-452323D01*
X2248788Y-1058443D01*
D11*
G01*
X3291890Y-228600D03*
D12*
G01*
X2854900Y-228600D03*
D13*
G01*
X2057400Y-241300D03*
G01*
X1803400Y-241300D03*
G01*
X1549400Y-241300D03*
G01*
X1295400Y-241300D03*
D14*
G01*
X6568490Y-1247507D03*
G01*
X416502Y-1247508D03*
G01*
X416502Y-2689504D03*
G01*
X6568490Y-2689504D03*
D15*
G01*
X1590522Y-2858693D03*
G01*
X1292885Y-1356918D03*
G01*
X5199354Y-2277008D03*
G01*
X1279753Y-714247D03*
G01*
X1798777Y-2857119D03*
G01*
X5997549Y-1537563D03*
G01*
X6098590Y-1930400D03*
G01*
X2248788Y-1058443D03*
G01*
X107213Y-2139213D03*
G01*
X107213Y-3155213D03*
G01*
X615213Y-3155213D03*
G01*
X1123213Y-2139213D03*
G01*
X1123213Y-2647213D03*
G01*
X1123213Y-3155213D03*
G01*
X1631213Y-3155213D03*
G01*
X2139213Y-615213D03*
G01*
X2139213Y-2139213D03*
G01*
X2139213Y-2647213D03*
G01*
X2139213Y-3155213D03*
G01*
X2647213Y-1123213D03*
G01*
X2647213Y-2139213D03*
G01*
X2647213Y-2647213D03*
G01*
X2647213Y-3155213D03*
G01*
X3155213Y-615213D03*
G01*
X3155213Y-1123213D03*
G01*
X3155213Y-2139213D03*
G01*
X3155213Y-2647213D03*
G01*
X3155213Y-3155213D03*
G01*
X3663188Y-107213D03*
G01*
X3663188Y-1123213D03*
G01*
X3663188Y-2139213D03*
G01*
X3663188Y-2647213D03*
G01*
X3663188Y-3155213D03*
G01*
X4171188Y-107213D03*
G01*
X4171188Y-615213D03*
G01*
X4171188Y-2139213D03*
G01*
X4171188Y-2647213D03*
G01*
X4171188Y-3155213D03*
G01*
X4679188Y-107213D03*
G01*
X4679188Y-615213D03*
G01*
X4679188Y-1123213D03*
G01*
X4679188Y-2139213D03*
G01*
X4679188Y-2647213D03*
G01*
X4679188Y-3155213D03*
G01*
X5187188Y-107213D03*
G01*
X5187188Y-615213D03*
G01*
X5187188Y-1123213D03*
G01*
X5187188Y-2647213D03*
G01*
X5187188Y-3155213D03*
G01*
X5695188Y-107213D03*
G01*
X5695188Y-615213D03*
G01*
X5695188Y-1123213D03*
G01*
X5695188Y-2139213D03*
G01*
X5695188Y-2647213D03*
G01*
X5695188Y-3155213D03*
G01*
X6203188Y-107213D03*
G01*
X6203188Y-3155213D03*
G01*
X6711188Y-615213D03*
G01*
X107213Y-2139213D03*
G01*
X107213Y-3155213D03*
G01*
X615213Y-3155213D03*
G01*
X1123213Y-2139213D03*
G01*
X1123213Y-2647213D03*
G01*
X1123213Y-3155213D03*
G01*
X1631213Y-3155213D03*
G01*
X2139213Y-615213D03*
G01*
X2139213Y-2139213D03*
G01*
X2139213Y-2647213D03*
G01*
X2139213Y-3155213D03*
G01*
X2647213Y-1123213D03*
G01*
X2647213Y-2139213D03*
G01*
X2647213Y-2647213D03*
G01*
X2647213Y-3155213D03*
G01*
X3155213Y-615213D03*
G01*
X3155213Y-1123213D03*
G01*
X3155213Y-2139213D03*
G01*
X3155213Y-2647213D03*
G01*
X3155213Y-3155213D03*
G01*
X3663188Y-107213D03*
G01*
X3663188Y-1123213D03*
G01*
X3663188Y-2139213D03*
G01*
X3663188Y-2647213D03*
G01*
X3663188Y-3155213D03*
G01*
X4171188Y-107213D03*
G01*
X4171188Y-615213D03*
G01*
X4171188Y-2139213D03*
G01*
X4171188Y-2647213D03*
G01*
X4171188Y-3155213D03*
G01*
X4679188Y-107213D03*
G01*
X4679188Y-615213D03*
G01*
X4679188Y-1123213D03*
G01*
X4679188Y-2139213D03*
G01*
X4679188Y-2647213D03*
G01*
X4679188Y-3155213D03*
G01*
X5187188Y-107213D03*
G01*
X5187188Y-615213D03*
G01*
X5187188Y-1123213D03*
G01*
X5187188Y-2647213D03*
G01*
X5187188Y-3155213D03*
G01*
X5695188Y-107213D03*
G01*
X5695188Y-615213D03*
G01*
X5695188Y-1123213D03*
G01*
X5695188Y-2139213D03*
G01*
X5695188Y-2647213D03*
G01*
X5695188Y-3155213D03*
G01*
X6203188Y-107213D03*
G01*
X6203188Y-3155213D03*
G01*
X6711188Y-615213D03*
G01*
X107213Y-1885213D03*
G01*
X107213Y-2139213D03*
G01*
X107213Y-3155213D03*
G01*
X107213Y-3409187D03*
G01*
X361213Y-1885213D03*
G01*
X361213Y-2139213D03*
G01*
X615213Y-1885213D03*
G01*
X615213Y-3155213D03*
G01*
X615213Y-3409187D03*
G01*
X869213Y-1377213D03*
G01*
X869213Y-1631213D03*
G01*
X869213Y-2139213D03*
G01*
X869213Y-2393213D03*
G01*
X869213Y-2647213D03*
G01*
X869213Y-2901213D03*
G01*
X869213Y-3155213D03*
G01*
X869213Y-3409187D03*
G01*
X1123213Y-1885213D03*
G01*
X1123213Y-2139213D03*
G01*
X1123213Y-2393213D03*
G01*
X1123213Y-2647213D03*
G01*
X1123213Y-3155213D03*
G01*
X1123213Y-3409187D03*
G01*
X1377213Y-1377213D03*
G01*
X1377213Y-1885213D03*
G01*
X1377213Y-2139213D03*
G01*
X1377213Y-2393213D03*
G01*
X1377213Y-2647213D03*
G01*
X1377213Y-3155213D03*
G01*
X1377213Y-3409187D03*
G01*
X1631213Y-3155213D03*
G01*
X1631213Y-3409187D03*
G01*
X1885213Y-3155213D03*
G01*
X1885213Y-3409187D03*
G01*
X2139213Y-615213D03*
G01*
X2139213Y-1377213D03*
G01*
X2139213Y-1885213D03*
G01*
X2139213Y-2139213D03*
G01*
X2139213Y-2393213D03*
G01*
X2139213Y-2647213D03*
G01*
X2139213Y-3155213D03*
G01*
X2139213Y-3409187D03*
G01*
X2393213Y-361213D03*
G01*
X2393213Y-615213D03*
G01*
X2393213Y-1377213D03*
G01*
X2393213Y-1885213D03*
G01*
X2393213Y-2139213D03*
G01*
X2393213Y-2393213D03*
G01*
X2393213Y-2647213D03*
G01*
X2393213Y-3155213D03*
G01*
X2393213Y-3409187D03*
G01*
X2647213Y-361213D03*
G01*
X2647213Y-869213D03*
G01*
X2647213Y-1123213D03*
G01*
X2647213Y-1377213D03*
G01*
X2647213Y-1885213D03*
G01*
X2647213Y-2139213D03*
G01*
X2647213Y-2393213D03*
G01*
X2647213Y-2647213D03*
G01*
X2647213Y-2901213D03*
G01*
X2647213Y-3155213D03*
G01*
X2647213Y-3409187D03*
G01*
X2901213Y-615213D03*
G01*
X2901213Y-869213D03*
G01*
X2901213Y-1123213D03*
G01*
X2901213Y-1377213D03*
G01*
X2901213Y-1885213D03*
G01*
X2901213Y-2139213D03*
G01*
X2901213Y-2393213D03*
G01*
X2901213Y-2647213D03*
G01*
X2901213Y-2901213D03*
G01*
X2901213Y-3155213D03*
G01*
X2901213Y-3409187D03*
G01*
X3155213Y-361213D03*
G01*
X3155213Y-615213D03*
G01*
X3155213Y-869213D03*
G01*
X3155213Y-1123213D03*
G01*
X3155213Y-1377213D03*
G01*
X3155213Y-1885213D03*
G01*
X3155213Y-2139213D03*
G01*
X3155213Y-2393213D03*
G01*
X3155213Y-2647213D03*
G01*
X3155213Y-2901213D03*
G01*
X3155213Y-3155213D03*
G01*
X3155213Y-3409187D03*
G01*
X3409188Y-615213D03*
G01*
X3409188Y-869213D03*
G01*
X3409188Y-1123213D03*
G01*
X3409188Y-1377213D03*
G01*
X3409188Y-1885213D03*
G01*
X3409188Y-2139213D03*
G01*
X3409188Y-2393213D03*
G01*
X3409188Y-2647213D03*
G01*
X3409188Y-2901213D03*
G01*
X3409188Y-3155213D03*
G01*
X3409188Y-3409187D03*
G01*
X3663188Y-107213D03*
G01*
X3663188Y-361213D03*
G01*
X3663188Y-869213D03*
G01*
X3663188Y-1123213D03*
G01*
X3663188Y-1377213D03*
G01*
X3663188Y-1885213D03*
G01*
X3663188Y-2139213D03*
G01*
X3663188Y-2393213D03*
G01*
X3663188Y-2647213D03*
G01*
X3663188Y-2901213D03*
G01*
X3663188Y-3155213D03*
G01*
X3663188Y-3409187D03*
G01*
X3917188Y-107213D03*
G01*
X3917188Y-361213D03*
G01*
X3917188Y-615213D03*
G01*
X3917188Y-1123213D03*
G01*
X3917188Y-1377213D03*
G01*
X3917188Y-1885213D03*
G01*
X3917188Y-2139213D03*
G01*
X3917188Y-2393213D03*
G01*
X3917188Y-2647213D03*
G01*
X3917188Y-2901213D03*
G01*
X3917188Y-3155213D03*
G01*
X3917188Y-3409187D03*
G01*
X4171188Y-107213D03*
G01*
X4171188Y-361213D03*
G01*
X4171188Y-615213D03*
G01*
X4171188Y-869213D03*
G01*
X4171188Y-1377213D03*
G01*
X4171188Y-1885213D03*
G01*
X4171188Y-2139213D03*
G01*
X4171188Y-2393213D03*
G01*
X4171188Y-2647213D03*
G01*
X4171188Y-2901213D03*
G01*
X4171188Y-3155213D03*
G01*
X4171188Y-3409187D03*
G01*
X4425188Y-107213D03*
G01*
X4425188Y-361213D03*
G01*
X4425188Y-615213D03*
G01*
X4425188Y-869213D03*
G01*
X4425188Y-1123213D03*
G01*
X4425188Y-1885213D03*
G01*
X4425188Y-2139213D03*
G01*
X4425188Y-2393213D03*
G01*
X4425188Y-2647213D03*
G01*
X4425188Y-2901213D03*
G01*
X4425188Y-3155213D03*
G01*
X4425188Y-3409187D03*
G01*
X4679188Y-107213D03*
G01*
X4679188Y-361213D03*
G01*
X4679188Y-615213D03*
G01*
X4679188Y-869213D03*
G01*
X4679188Y-1123213D03*
G01*
X4679188Y-1377213D03*
G01*
X4679188Y-1885213D03*
G01*
X4679188Y-2139213D03*
G01*
X4679188Y-2393213D03*
G01*
X4679188Y-2647213D03*
G01*
X4679188Y-2901213D03*
G01*
X4679188Y-3155213D03*
G01*
X4679188Y-3409187D03*
G01*
X4933188Y-107213D03*
G01*
X4933188Y-361213D03*
G01*
X4933188Y-615213D03*
G01*
X4933188Y-869213D03*
G01*
X4933188Y-1123213D03*
G01*
X4933188Y-1377213D03*
G01*
X4933188Y-2139213D03*
G01*
X4933188Y-2393213D03*
G01*
X4933188Y-2647213D03*
G01*
X4933188Y-2901213D03*
G01*
X4933188Y-3155213D03*
G01*
X4933188Y-3409187D03*
G01*
X5187188Y-107213D03*
G01*
X5187188Y-361213D03*
G01*
X5187188Y-615213D03*
G01*
X5187188Y-869213D03*
G01*
X5187188Y-1123213D03*
G01*
X5187188Y-1377213D03*
G01*
X5187188Y-1885213D03*
G01*
X5187188Y-2393213D03*
G01*
X5187188Y-2647213D03*
G01*
X5187188Y-2901213D03*
G01*
X5187188Y-3155213D03*
G01*
X5187188Y-3409187D03*
G01*
X5441188Y-107213D03*
G01*
X5441188Y-361213D03*
G01*
X5441188Y-615213D03*
G01*
X5441188Y-869213D03*
G01*
X5441188Y-1123213D03*
G01*
X5441188Y-1377213D03*
G01*
X5441188Y-1885213D03*
G01*
X5441188Y-2139213D03*
G01*
X5441188Y-2393213D03*
G01*
X5441188Y-2647213D03*
G01*
X5441188Y-2901213D03*
G01*
X5441188Y-3155213D03*
G01*
X5441188Y-3409187D03*
G01*
X5695188Y-107213D03*
G01*
X5695188Y-361213D03*
G01*
X5695188Y-615213D03*
G01*
X5695188Y-869213D03*
G01*
X5695188Y-1123213D03*
G01*
X5695188Y-1377213D03*
G01*
X5695188Y-1885213D03*
G01*
X5695188Y-2139213D03*
G01*
X5695188Y-2393213D03*
G01*
X5695188Y-2647213D03*
G01*
X5695188Y-2901213D03*
G01*
X5695188Y-3155213D03*
G01*
X5695188Y-3409187D03*
G01*
X5949188Y-107213D03*
G01*
X5949188Y-361213D03*
G01*
X5949188Y-615213D03*
G01*
X5949188Y-869213D03*
G01*
X5949188Y-1123213D03*
G01*
X5949188Y-1377213D03*
G01*
X5949188Y-2139213D03*
G01*
X5949188Y-2393213D03*
G01*
X5949188Y-2647213D03*
G01*
X5949188Y-2901213D03*
G01*
X5949188Y-3155213D03*
G01*
X5949188Y-3409187D03*
G01*
X6203188Y-107213D03*
G01*
X6203188Y-361213D03*
G01*
X6203188Y-1885213D03*
G01*
X6203188Y-3155213D03*
G01*
X6203188Y-3409187D03*
G01*
X6457188Y-107213D03*
G01*
X6457188Y-361213D03*
G01*
X6457188Y-615213D03*
G01*
X6457188Y-1885213D03*
G01*
X6457188Y-3155213D03*
G01*
X6457188Y-3409187D03*
G01*
X6711188Y-615213D03*
M02*
