G04 Layer: TopSilkscreenLayer*
G04 EasyEDA v6.5.47, 2024-12-05 11:28:38*
G04 e01d2f149ab64b4ea65648a7afd3b608,d06a1f6f384c4cbbbfe4d72778ff38a8,10*
G04 Gerber Generator version 0.2*
G04 Scale: 100 percent, Rotated: No, Reflected: No *
G04 Dimensions in millimeters *
G04 leading zeros omitted , absolute positions ,4 integer and 5 decimal *
%FSLAX45Y45*%
%MOMM*%

%ADD10C,0.2032*%
%ADD11C,0.1524*%
%ADD12C,0.2540*%
%ADD13C,0.2000*%
%ADD14C,0.3000*%
%ADD15C,0.0122*%

%LPD*%
D10*
X2693670Y-125221D02*
G01*
X2693670Y-319023D01*
X2628900Y-125221D02*
G01*
X2758186Y-125221D01*
X2819145Y-245110D02*
G01*
X2929890Y-245110D01*
X2929890Y-226821D01*
X2920745Y-208279D01*
X2911602Y-199136D01*
X2893059Y-189737D01*
X2865374Y-189737D01*
X2846831Y-199136D01*
X2828290Y-217423D01*
X2819145Y-245110D01*
X2819145Y-263652D01*
X2828290Y-291337D01*
X2846831Y-309879D01*
X2865374Y-319023D01*
X2893059Y-319023D01*
X2911602Y-309879D01*
X2929890Y-291337D01*
X2990850Y-189737D02*
G01*
X2990850Y-319023D01*
X2990850Y-226821D02*
G01*
X3018790Y-199136D01*
X3037077Y-189737D01*
X3064763Y-189737D01*
X3083306Y-199136D01*
X3092450Y-226821D01*
X3092450Y-319023D01*
X3092450Y-226821D02*
G01*
X3120390Y-199136D01*
X3138677Y-189737D01*
X3166363Y-189737D01*
X3184906Y-199136D01*
X3194050Y-226821D01*
X3194050Y-319023D01*
X3255009Y-189737D02*
G01*
X3255009Y-383794D01*
X3255009Y-217423D02*
G01*
X3273552Y-199136D01*
X3292093Y-189737D01*
X3319779Y-189737D01*
X3338322Y-199136D01*
X3356609Y-217423D01*
X3366008Y-245110D01*
X3366008Y-263652D01*
X3356609Y-291337D01*
X3338322Y-309879D01*
X3319779Y-319023D01*
X3292093Y-319023D01*
X3273552Y-309879D01*
X3255009Y-291337D01*
X3593084Y-88137D02*
G01*
X3426968Y-383794D01*
X3654043Y-125221D02*
G01*
X3654043Y-319023D01*
X3783329Y-125221D02*
G01*
X3783329Y-319023D01*
X3654043Y-217423D02*
G01*
X3783329Y-217423D01*
X3844290Y-189737D02*
G01*
X3844290Y-282194D01*
X3853688Y-309879D01*
X3872229Y-319023D01*
X3899915Y-319023D01*
X3918204Y-309879D01*
X3945890Y-282194D01*
X3945890Y-189737D02*
G01*
X3945890Y-319023D01*
X4006850Y-189737D02*
G01*
X4006850Y-319023D01*
X4006850Y-226821D02*
G01*
X4034790Y-199136D01*
X4053077Y-189737D01*
X4080763Y-189737D01*
X4099306Y-199136D01*
X4108450Y-226821D01*
X4108450Y-319023D01*
X4108450Y-226821D02*
G01*
X4136390Y-199136D01*
X4154677Y-189737D01*
X4182363Y-189737D01*
X4200906Y-199136D01*
X4210050Y-226821D01*
X4210050Y-319023D01*
X4271009Y-125221D02*
G01*
X4280408Y-134365D01*
X4289552Y-125221D01*
X4280408Y-115823D01*
X4271009Y-125221D01*
X4280408Y-189737D02*
G01*
X4280408Y-319023D01*
X4461509Y-125221D02*
G01*
X4461509Y-319023D01*
X4461509Y-217423D02*
G01*
X4442968Y-199136D01*
X4424425Y-189737D01*
X4396740Y-189737D01*
X4378197Y-199136D01*
X4359909Y-217423D01*
X4350511Y-245110D01*
X4350511Y-263652D01*
X4359909Y-291337D01*
X4378197Y-309879D01*
X4396740Y-319023D01*
X4424425Y-319023D01*
X4442968Y-309879D01*
X4461509Y-291337D01*
X4522470Y-125221D02*
G01*
X4531613Y-134365D01*
X4540758Y-125221D01*
X4531613Y-115823D01*
X4522470Y-125221D01*
X4531613Y-189737D02*
G01*
X4531613Y-319023D01*
X4629404Y-125221D02*
G01*
X4629404Y-282194D01*
X4638802Y-309879D01*
X4657090Y-319023D01*
X4675631Y-319023D01*
X4601718Y-189737D02*
G01*
X4666488Y-189737D01*
X4745990Y-189737D02*
G01*
X4801361Y-319023D01*
X4856734Y-189737D02*
G01*
X4801361Y-319023D01*
X4782820Y-356107D01*
X4764277Y-374650D01*
X4745990Y-383794D01*
X4736591Y-383794D01*
X5083809Y-88137D02*
G01*
X4917693Y-383794D01*
X5144770Y-125221D02*
G01*
X5144770Y-319023D01*
X5144770Y-125221D02*
G01*
X5228081Y-125221D01*
X5255768Y-134365D01*
X5264911Y-143510D01*
X5274309Y-162052D01*
X5274309Y-189737D01*
X5264911Y-208279D01*
X5255768Y-217423D01*
X5228081Y-226821D01*
X5144770Y-226821D01*
X5335270Y-189737D02*
G01*
X5335270Y-319023D01*
X5335270Y-245110D02*
G01*
X5344413Y-217423D01*
X5362956Y-199136D01*
X5381243Y-189737D01*
X5408929Y-189737D01*
X5469890Y-245110D02*
G01*
X5580888Y-245110D01*
X5580888Y-226821D01*
X5571490Y-208279D01*
X5562345Y-199136D01*
X5543804Y-189737D01*
X5516118Y-189737D01*
X5497829Y-199136D01*
X5479288Y-217423D01*
X5469890Y-245110D01*
X5469890Y-263652D01*
X5479288Y-291337D01*
X5497829Y-309879D01*
X5516118Y-319023D01*
X5543804Y-319023D01*
X5562345Y-309879D01*
X5580888Y-291337D01*
X5743447Y-217423D02*
G01*
X5734050Y-199136D01*
X5706363Y-189737D01*
X5678677Y-189737D01*
X5650991Y-199136D01*
X5641847Y-217423D01*
X5650991Y-235965D01*
X5669534Y-245110D01*
X5715761Y-254507D01*
X5734050Y-263652D01*
X5743447Y-282194D01*
X5743447Y-291337D01*
X5734050Y-309879D01*
X5706363Y-319023D01*
X5678677Y-319023D01*
X5650991Y-309879D01*
X5641847Y-291337D01*
X5906008Y-217423D02*
G01*
X5896609Y-199136D01*
X5868924Y-189737D01*
X5841238Y-189737D01*
X5813552Y-199136D01*
X5804408Y-217423D01*
X5813552Y-235965D01*
X5832093Y-245110D01*
X5878322Y-254507D01*
X5896609Y-263652D01*
X5906008Y-282194D01*
X5906008Y-291337D01*
X5896609Y-309879D01*
X5868924Y-319023D01*
X5841238Y-319023D01*
X5813552Y-309879D01*
X5804408Y-291337D01*
X5966968Y-189737D02*
G01*
X5966968Y-282194D01*
X5976111Y-309879D01*
X5994654Y-319023D01*
X6022340Y-319023D01*
X6040881Y-309879D01*
X6068568Y-282194D01*
X6068568Y-189737D02*
G01*
X6068568Y-319023D01*
X6129527Y-189737D02*
G01*
X6129527Y-319023D01*
X6129527Y-245110D02*
G01*
X6138672Y-217423D01*
X6157213Y-199136D01*
X6175756Y-189737D01*
X6203441Y-189737D01*
X6264402Y-245110D02*
G01*
X6375145Y-245110D01*
X6375145Y-226821D01*
X6366002Y-208279D01*
X6356604Y-199136D01*
X6338315Y-189737D01*
X6310629Y-189737D01*
X6292088Y-199136D01*
X6273545Y-217423D01*
X6264402Y-245110D01*
X6264402Y-263652D01*
X6273545Y-291337D01*
X6292088Y-309879D01*
X6310629Y-319023D01*
X6338315Y-319023D01*
X6356604Y-309879D01*
X6375145Y-291337D01*
X2641600Y-558037D02*
G01*
X2696972Y-687323D01*
X2752343Y-558037D02*
G01*
X2696972Y-687323D01*
X2813304Y-530352D02*
G01*
X2831845Y-521207D01*
X2859531Y-493521D01*
X2859531Y-687323D01*
X2929890Y-641350D02*
G01*
X2920491Y-650494D01*
X2929890Y-659637D01*
X2939034Y-650494D01*
X2929890Y-641350D01*
X3055365Y-493521D02*
G01*
X3027679Y-502665D01*
X3009138Y-530352D01*
X2999993Y-576579D01*
X2999993Y-604265D01*
X3009138Y-650494D01*
X3027679Y-678179D01*
X3055365Y-687323D01*
X3073908Y-687323D01*
X3101593Y-678179D01*
X3120136Y-650494D01*
X3129279Y-604265D01*
X3129279Y-576579D01*
X3120136Y-530352D01*
X3101593Y-502665D01*
X3073908Y-493521D01*
X3055365Y-493521D01*
X3332479Y-530352D02*
G01*
X3351022Y-521207D01*
X3378708Y-493521D01*
X3378708Y-687323D01*
X3495040Y-493521D02*
G01*
X3467354Y-502665D01*
X3448811Y-530352D01*
X3439668Y-576579D01*
X3439668Y-604265D01*
X3448811Y-650494D01*
X3467354Y-678179D01*
X3495040Y-687323D01*
X3513581Y-687323D01*
X3541268Y-678179D01*
X3559809Y-650494D01*
X3568954Y-604265D01*
X3568954Y-576579D01*
X3559809Y-530352D01*
X3541268Y-502665D01*
X3513581Y-493521D01*
X3495040Y-493521D01*
X3796029Y-456437D02*
G01*
X3629913Y-752094D01*
X3856990Y-530352D02*
G01*
X3875531Y-521207D01*
X3903218Y-493521D01*
X3903218Y-687323D01*
X4019550Y-493521D02*
G01*
X3991863Y-502665D01*
X3973575Y-530352D01*
X3964177Y-576579D01*
X3964177Y-604265D01*
X3973575Y-650494D01*
X3991863Y-678179D01*
X4019550Y-687323D01*
X4038091Y-687323D01*
X4065777Y-678179D01*
X4084320Y-650494D01*
X4093463Y-604265D01*
X4093463Y-576579D01*
X4084320Y-530352D01*
X4065777Y-502665D01*
X4038091Y-493521D01*
X4019550Y-493521D01*
X4320793Y-456437D02*
G01*
X4154424Y-752094D01*
X4390897Y-539750D02*
G01*
X4390897Y-530352D01*
X4400295Y-511810D01*
X4409440Y-502665D01*
X4427981Y-493521D01*
X4464811Y-493521D01*
X4483354Y-502665D01*
X4492497Y-511810D01*
X4501895Y-530352D01*
X4501895Y-548894D01*
X4492497Y-567436D01*
X4474209Y-595121D01*
X4381754Y-687323D01*
X4511040Y-687323D01*
X4664456Y-493521D02*
G01*
X4572000Y-622807D01*
X4710429Y-622807D01*
X4664456Y-493521D02*
G01*
X4664456Y-687323D01*
D11*
X5791200Y-1637284D02*
G01*
X5791200Y-1746250D01*
X5791200Y-1637284D02*
G01*
X5837936Y-1637284D01*
X5853429Y-1642363D01*
X5858763Y-1647697D01*
X5863843Y-1658112D01*
X5863843Y-1668526D01*
X5858763Y-1678939D01*
X5853429Y-1684020D01*
X5837936Y-1689100D01*
X5791200Y-1689100D01*
X5827522Y-1689100D02*
G01*
X5863843Y-1746250D01*
X5898134Y-1658112D02*
G01*
X5908547Y-1652778D01*
X5924295Y-1637284D01*
X5924295Y-1746250D01*
X5778500Y-1789684D02*
G01*
X5778500Y-1898650D01*
X5778500Y-1789684D02*
G01*
X5825236Y-1789684D01*
X5840729Y-1794763D01*
X5846063Y-1800097D01*
X5851143Y-1810512D01*
X5851143Y-1820926D01*
X5846063Y-1831339D01*
X5840729Y-1836420D01*
X5825236Y-1841500D01*
X5778500Y-1841500D01*
X5814822Y-1841500D02*
G01*
X5851143Y-1898650D01*
X5890768Y-1815592D02*
G01*
X5890768Y-1810512D01*
X5895847Y-1800097D01*
X5901181Y-1794763D01*
X5911595Y-1789684D01*
X5932170Y-1789684D01*
X5942584Y-1794763D01*
X5947918Y-1800097D01*
X5952997Y-1810512D01*
X5952997Y-1820926D01*
X5947918Y-1831339D01*
X5937504Y-1846834D01*
X5885434Y-1898650D01*
X5958331Y-1898650D01*
X5778500Y-1954784D02*
G01*
X5778500Y-2063750D01*
X5778500Y-1954784D02*
G01*
X5825236Y-1954784D01*
X5840729Y-1959863D01*
X5846063Y-1965197D01*
X5851143Y-1975612D01*
X5851143Y-1986026D01*
X5846063Y-1996439D01*
X5840729Y-2001520D01*
X5825236Y-2006600D01*
X5778500Y-2006600D01*
X5814822Y-2006600D02*
G01*
X5851143Y-2063750D01*
X5895847Y-1954784D02*
G01*
X5952997Y-1954784D01*
X5922009Y-1996439D01*
X5937504Y-1996439D01*
X5947918Y-2001520D01*
X5952997Y-2006600D01*
X5958331Y-2022347D01*
X5958331Y-2032762D01*
X5952997Y-2048255D01*
X5942584Y-2058670D01*
X5927090Y-2063750D01*
X5911595Y-2063750D01*
X5895847Y-2058670D01*
X5890768Y-2053589D01*
X5885434Y-2043176D01*
X6071108Y-2465578D02*
G01*
X6081522Y-2460244D01*
X6091936Y-2449829D01*
X6097015Y-2439670D01*
X6097015Y-2418842D01*
X6091936Y-2408428D01*
X6081522Y-2398013D01*
X6071108Y-2392679D01*
X6055359Y-2387600D01*
X6029452Y-2387600D01*
X6013958Y-2392679D01*
X6003543Y-2398013D01*
X5993129Y-2408428D01*
X5988050Y-2418842D01*
X5988050Y-2439670D01*
X5993129Y-2449829D01*
X6003543Y-2460244D01*
X6013958Y-2465578D01*
X6076188Y-2499868D02*
G01*
X6081522Y-2510281D01*
X6097015Y-2525776D01*
X5988050Y-2525776D01*
X6261608Y-2465578D02*
G01*
X6272022Y-2460244D01*
X6282436Y-2449829D01*
X6287515Y-2439670D01*
X6287515Y-2418842D01*
X6282436Y-2408428D01*
X6272022Y-2398013D01*
X6261608Y-2392679D01*
X6245859Y-2387600D01*
X6219952Y-2387600D01*
X6204458Y-2392679D01*
X6194043Y-2398013D01*
X6183629Y-2408428D01*
X6178550Y-2418842D01*
X6178550Y-2439670D01*
X6183629Y-2449829D01*
X6194043Y-2460244D01*
X6204458Y-2465578D01*
X6261608Y-2504947D02*
G01*
X6266688Y-2504947D01*
X6277102Y-2510281D01*
X6282436Y-2515362D01*
X6287515Y-2525776D01*
X6287515Y-2546604D01*
X6282436Y-2557018D01*
X6277102Y-2562097D01*
X6266688Y-2567431D01*
X6256274Y-2567431D01*
X6245859Y-2562097D01*
X6230365Y-2551684D01*
X6178550Y-2499868D01*
X6178550Y-2572512D01*
X1955800Y-633984D02*
G01*
X1955800Y-742950D01*
X1955800Y-633984D02*
G01*
X2002536Y-633984D01*
X2018029Y-639063D01*
X2023363Y-644397D01*
X2028443Y-654812D01*
X2028443Y-665226D01*
X2023363Y-675639D01*
X2018029Y-680720D01*
X2002536Y-685800D01*
X1955800Y-685800D01*
X1992122Y-685800D02*
G01*
X2028443Y-742950D01*
X2114804Y-633984D02*
G01*
X2062734Y-706628D01*
X2140711Y-706628D01*
X2114804Y-633984D02*
G01*
X2114804Y-742950D01*
X6105921Y-1651939D02*
G01*
X6177724Y-1651939D01*
X6177724Y-1751660D01*
X6105921Y-1751660D01*
X6060678Y-1651939D02*
G01*
X5988875Y-1651939D01*
X5988875Y-1751660D01*
X6060678Y-1751660D01*
X6105921Y-1804339D02*
G01*
X6177724Y-1804339D01*
X6177724Y-1904060D01*
X6105921Y-1904060D01*
X6060678Y-1804339D02*
G01*
X5988875Y-1804339D01*
X5988875Y-1904060D01*
X6060678Y-1904060D01*
X6105921Y-1956739D02*
G01*
X6177724Y-1956739D01*
X6177724Y-2056460D01*
X6105921Y-2056460D01*
X6060678Y-1956739D02*
G01*
X5988875Y-1956739D01*
X5988875Y-2056460D01*
X6060678Y-2056460D01*
X5995339Y-2120869D02*
G01*
X5995339Y-2199878D01*
X6095060Y-2199878D02*
G01*
X6095060Y-2120869D01*
X6079820Y-2105629D02*
G01*
X6010579Y-2105629D01*
X5995339Y-2324130D02*
G01*
X5995339Y-2245121D01*
X6095060Y-2245121D02*
G01*
X6095060Y-2324130D01*
X6079820Y-2339370D02*
G01*
X6010579Y-2339370D01*
X6160439Y-2120869D02*
G01*
X6160439Y-2199878D01*
X6260160Y-2199878D02*
G01*
X6260160Y-2120869D01*
X6244920Y-2105629D02*
G01*
X6175679Y-2105629D01*
X6160439Y-2324130D02*
G01*
X6160439Y-2245121D01*
X6260160Y-2245121D02*
G01*
X6260160Y-2324130D01*
X6244920Y-2339370D02*
G01*
X6175679Y-2339370D01*
D12*
X1087183Y-2997202D02*
G01*
X1065296Y-2997202D01*
X2465298Y-2997202D02*
G01*
X2443413Y-2997202D01*
X1087183Y-1193802D02*
G01*
X1065296Y-1193802D01*
X2465298Y-1193802D02*
G01*
X2443413Y-1193802D01*
X1065296Y-1193723D02*
G01*
X1065296Y-2997123D01*
X2465298Y-1193802D02*
G01*
X2465298Y-2997202D01*
D11*
X6344381Y-1848581D02*
G01*
X6609618Y-1848581D01*
X6344381Y-2113818D02*
G01*
X6609618Y-2113818D01*
X2003419Y-917209D02*
G01*
X2131913Y-917209D01*
X2131913Y-733790D01*
X2003419Y-733790D01*
X1908180Y-917209D02*
G01*
X1779686Y-917209D01*
X1779686Y-733790D01*
X1908180Y-733790D01*
G75*
G01*
X6095060Y-2120870D02*
G03*
X6079820Y-2105630I-15240J0D01*
G75*
G01*
X6010580Y-2105630D02*
G03*
X5995340Y-2120870I0J-15240D01*
G75*
G01*
X6095060Y-2324130D02*
G02*
X6079820Y-2339370I-15240J0D01*
G75*
G01*
X6010580Y-2339370D02*
G02*
X5995340Y-2324130I0J15240D01*
G75*
G01*
X6260160Y-2120870D02*
G03*
X6244920Y-2105630I-15240J0D01*
G75*
G01*
X6175680Y-2105630D02*
G03*
X6160440Y-2120870I0J-15240D01*
G75*
G01*
X6260160Y-2324130D02*
G02*
X6244920Y-2339370I-15240J0D01*
G75*
G01*
X6175680Y-2339370D02*
G02*
X6160440Y-2324130I0J15240D01*
D12*
G75*
G01
X2540000Y-1143000D02*
G03X2540000Y-1143000I-25400J0D01*
D13*
G75*
G01
X6436208Y-2082800D02*
G03X6436208Y-2082800I-10008J0D01*
D14*
G75*
G01
X6492011Y-1892300D02*
G03X6492011Y-1892300I-15011J0D01*
M02*
